<svg version="1.1" id="Layer_1" xmlns="http://www.w3.org/2000/svg" xmlns:xlink="http://www.w3.org/1999/xlink" x="0px" y="0px"
	 width="100%" viewBox="0 0 500 500" enable-background="new 0 0 500 500" xml:space="preserve">
<path fill="#FFFFFE" opacity="1.000000" stroke="none" 
	d="
M266.000000,501.000000 
	C178.666687,501.000000 91.833336,500.974152 5.000196,501.095856 
	C1.576069,501.100677 0.903036,500.423828 0.905301,497.000000 
	C1.013778,333.000092 1.013773,169.000122 0.905335,5.000244 
	C0.903071,1.576937 1.575803,0.903022 4.999879,0.905287 
	C168.999756,1.013774 332.999725,1.013761 496.999634,0.905353 
	C500.422668,0.903090 501.096985,1.575434 501.094727,4.999760 
	C500.986206,168.999634 500.986237,332.999603 501.094604,496.999512 
	C501.096893,500.422272 500.425568,501.101807 497.000275,501.096222 
	C420.167023,500.970764 343.333466,501.000000 266.000000,501.000000 
z"/>
<path fill="#F3D503" opacity="1.000000" stroke="none" 
	d="
M141.498169,137.129654 
	C141.781036,136.478378 142.038879,136.119095 142.520874,135.514816 
	C142.952774,134.098648 143.688721,133.293488 144.875427,132.430359 
	C146.351501,130.977966 147.544128,129.699463 149.054932,128.315796 
	C149.612289,127.583832 150.035217,127.121506 150.933807,126.712616 
	C151.541946,126.306183 151.843002,125.997200 152.383575,125.470612 
	C152.736526,124.611801 153.087967,124.155914 153.983963,123.843178 
	C154.283936,123.795906 154.506454,123.505539 154.662781,123.410553 
	C155.224243,121.351624 157.045258,121.190659 158.767807,120.391487 
	C159.325684,120.026436 159.548569,119.747620 159.961960,119.280540 
	C160.958954,117.773430 162.270950,117.171303 163.915451,116.515289 
	C164.199188,116.392265 164.291367,116.270462 164.367401,116.263306 
	C165.009079,114.847626 166.210129,114.345245 167.901718,114.065384 
	C168.470673,113.928719 168.705215,113.792213 169.304184,113.474350 
	C171.718414,110.991913 174.409576,109.804176 177.590393,108.855644 
	C178.508575,108.685234 179.121811,108.614868 179.843811,108.027039 
	C180.196320,107.679207 180.340912,107.542976 180.746826,107.263550 
	C181.967285,106.916779 182.926407,106.713211 184.239639,106.410225 
	C186.625748,104.179665 189.497818,104.510567 192.343567,103.763702 
	C193.684586,103.709999 194.724808,103.875557 195.837387,103.038963 
	C196.196350,102.712982 196.345123,102.587555 196.758713,102.339363 
	C197.448151,102.108459 197.872787,102.000313 198.624054,101.852692 
	C203.233704,102.137650 207.115494,99.652794 211.751465,100.050423 
	C213.539246,100.207146 214.995285,100.961990 216.699738,99.847549 
	C238.788254,99.669647 260.591278,99.624069 282.394287,99.559540 
	C284.386108,99.553650 286.377594,99.426361 288.767334,99.233932 
	C292.519623,97.386040 296.492615,97.076683 299.812561,94.388351 
	C300.217865,94.025787 300.326569,93.867447 300.623840,93.491348 
	C301.749542,90.563271 304.172241,88.851585 305.593842,86.052696 
	C305.784943,84.733017 305.834137,83.732224 305.991730,82.370331 
	C306.199860,81.770058 306.299591,81.530861 306.619263,80.973022 
	C308.374969,77.486000 307.380402,74.107620 307.641693,70.833679 
	C307.811890,68.701050 307.343323,66.490562 308.760040,64.218163 
	C310.485840,63.433052 311.335083,64.518333 312.639343,65.387810 
	C313.788910,66.035789 314.159607,66.993164 315.278137,67.369766 
	C316.449097,67.633255 317.300293,68.026962 318.401855,68.668221 
	C320.336945,69.550911 322.058350,70.124344 323.350891,71.947723 
	C323.694153,72.332268 323.910217,72.402245 324.427338,72.631683 
	C326.140808,73.008080 327.018585,74.013672 328.151733,75.196503 
	C328.923065,76.057205 329.524078,76.613754 330.712463,76.830696 
	C335.158752,78.469490 338.324158,81.637993 342.341187,83.946396 
	C342.697266,84.338524 342.913513,84.410828 343.431732,84.643791 
	C344.914917,84.974640 345.723358,85.715736 346.645325,86.849777 
	C346.838806,87.120232 346.924469,87.067062 346.907837,87.114647 
	C347.434784,87.544151 347.885040,88.046616 348.793274,88.428268 
	C349.781067,88.835876 350.440796,89.196457 351.404205,89.777786 
	C354.281738,90.961754 356.298828,92.825630 358.901703,94.384178 
	C360.170380,94.742737 360.794312,95.393631 361.528564,96.430099 
	C363.386719,99.261955 366.274811,99.892120 369.085693,101.186035 
	C371.122650,101.396133 372.384247,102.335609 373.664246,103.865479 
	C373.865692,104.145882 373.827820,104.335472 373.797119,104.427139 
	C375.591888,106.318581 377.370056,108.189568 380.390320,108.748154 
	C382.152435,109.019043 383.496460,109.408127 384.650482,110.899048 
	C384.852325,111.193634 385.013214,111.475166 385.084900,111.620598 
	C386.446350,114.126381 389.258972,114.644096 391.268524,116.459518 
	C391.935944,116.470116 392.267578,116.560997 392.819733,116.787048 
	C394.341431,118.430214 395.595917,119.995926 397.941528,120.700119 
	C398.709259,120.907150 399.136444,121.064011 399.850983,121.422424 
	C401.673035,123.267838 403.276611,124.835320 405.797424,125.693687 
	C406.542816,125.888710 406.958801,126.026245 407.658875,126.327133 
	C408.660522,126.927376 409.255768,127.550064 410.307251,128.076950 
	C410.772430,128.342285 410.953949,128.458435 411.371826,128.797058 
	C412.627045,131.248062 415.118805,131.319427 417.119293,132.648163 
	C417.838806,132.869751 418.241058,133.023071 418.952667,133.264221 
	C419.266266,133.340836 419.271851,133.538086 419.272736,133.636749 
	C419.866821,137.362442 417.214630,136.908417 415.146240,136.868637 
	C382.557556,136.242065 349.966309,136.723373 317.376617,136.620697 
	C289.274109,136.532166 261.171051,136.620148 233.068329,136.584045 
	C228.562500,136.578247 224.101547,136.802856 219.238373,137.988739 
	C216.832062,138.267288 214.894608,138.410873 212.541809,138.480530 
	C209.216904,137.973679 206.488983,138.344452 203.877136,140.470901 
	C202.966904,141.369263 202.088257,141.572784 200.880066,141.779343 
	C198.597137,141.164551 196.826721,141.343201 195.085480,143.067322 
	C194.570297,143.283432 194.355347,143.393417 193.795166,143.612961 
	C192.789413,145.472870 191.229858,145.787521 189.355804,146.138092 
	C188.265610,146.289795 187.484985,146.398178 186.808533,147.385895 
	C185.721954,148.682053 184.590866,149.427490 183.085739,150.224014 
	C182.267395,150.713455 181.781281,151.097504 181.070145,151.694794 
	C173.937485,157.447540 167.610413,163.528244 163.610046,171.579697 
	C158.687820,181.486588 154.841629,191.937073 155.526352,203.050110 
	C156.449036,218.024918 160.999466,231.839020 171.299240,243.485535 
	C179.687729,252.970840 189.520050,259.818176 201.602097,263.546448 
	C207.841415,265.471771 214.355392,265.849335 220.723373,266.472473 
	C236.783371,268.044067 248.756790,275.049713 255.723434,289.894470 
	C256.364868,291.261261 256.860718,292.650360 257.105621,294.147430 
	C258.443298,302.324890 257.083984,303.989777 248.992844,303.992493 
	C239.335068,303.995697 229.676987,304.041748 220.019638,303.976776 
	C213.034576,303.929810 205.940018,303.173431 199.264816,301.801117 
	C187.108353,299.301941 175.398468,294.904175 164.901138,287.758179 
	C160.505508,284.765869 156.710327,280.982330 151.853867,278.048096 
	C151.675064,277.687561 151.432877,277.589905 151.351242,277.488007 
	C149.526505,276.883301 148.549271,275.506531 147.407867,273.882019 
	C146.952118,273.131317 146.669601,272.623779 145.928574,272.137909 
	C145.343185,271.795288 145.040970,271.554901 144.717133,270.987915 
	C144.665192,270.700012 144.430023,270.560150 144.360367,270.442383 
	C143.837143,270.228729 143.462799,270.001923 143.066956,269.321350 
	C142.103287,268.115784 141.240036,267.233643 140.267807,266.053711 
	C139.175079,265.171387 138.355453,264.432068 137.813705,263.028564 
	C137.733536,262.702118 137.481079,262.544189 137.408997,262.413910 
	C136.916397,262.326569 136.625427,262.164398 136.413239,261.483246 
	C136.164734,260.679352 135.906784,260.202606 135.183395,259.707764 
	C132.626907,258.246185 132.428711,255.684174 131.316238,253.310135 
	C131.071716,252.648132 130.898636,252.302673 130.652557,251.675858 
	C130.570114,251.003128 130.460724,250.644104 130.126678,250.058624 
	C129.816681,249.076508 129.621399,248.355392 128.932037,247.551483 
	C128.643234,247.166443 128.537857,247.003387 128.315002,246.572052 
	C127.966614,245.354614 127.846588,244.340988 126.533676,243.674927 
	C125.289742,241.887543 125.393021,240.016525 124.874069,237.974945 
	C124.667755,236.826706 124.306038,236.108765 123.485077,235.285614 
	C122.738434,234.110962 122.364952,233.114426 122.220947,231.718979 
	C122.874626,229.620361 122.088730,228.134094 121.158707,226.348083 
	C120.485672,224.365433 119.448616,222.856262 119.294022,220.710327 
	C119.501282,219.143250 119.880043,217.911575 119.361847,216.342743 
	C118.936203,214.582504 118.522499,213.144592 118.281219,211.347931 
	C118.193863,209.946762 118.094421,208.867630 118.007980,207.381592 
	C116.489082,204.681198 116.872650,202.243271 117.749969,199.407013 
	C118.054710,197.293289 118.088486,195.561096 118.193344,193.401611 
	C118.211967,191.431885 118.914391,190.037201 119.203865,188.230286 
	C119.433586,187.281113 119.620422,186.655411 119.696411,185.670288 
	C119.840057,183.072479 119.792732,180.785202 120.602112,178.261841 
	C120.759850,177.175064 120.878723,176.427567 121.133026,175.326111 
	C121.165604,173.841415 121.933754,173.135284 122.704399,172.099121 
	C123.017754,170.552475 123.172127,169.259598 123.519791,167.627533 
	C124.274475,165.938477 125.055298,164.685776 125.567398,162.973358 
	C125.646545,162.667694 125.652023,162.239380 125.706802,162.032349 
	C127.077042,161.287292 127.448967,160.100952 127.859680,158.572906 
	C128.377731,156.502731 129.274765,154.957794 130.387100,153.154480 
	C131.373428,152.431030 132.072189,151.889984 132.404434,150.752655 
	C132.534195,149.818527 132.763748,149.202545 133.151825,148.298279 
	C133.463638,147.057037 133.917542,146.251282 134.771317,145.270233 
	C135.090179,143.450089 136.623566,142.920624 137.542358,141.537491 
	C137.960419,139.886337 138.977646,139.147964 140.296524,138.287720 
	C140.929703,137.982697 141.239517,137.751236 141.498169,137.129654 
z"/>
<path fill="#F3D504" opacity="1.000000" stroke="none" 
	d="
M254.596649,367.781494 
	C255.975876,367.636993 256.932678,367.609741 258.248169,367.598236 
	C265.883301,365.744781 272.807648,363.118103 279.349548,359.294250 
	C288.177643,354.134064 295.206879,347.250214 300.392487,338.545807 
	C308.257782,325.343292 312.556549,311.258698 309.712677,295.711273 
	C306.786987,279.716370 300.106842,265.963501 287.132843,255.377625 
	C279.174286,248.883957 270.418945,244.514160 260.674194,241.979034 
	C254.565735,240.389877 248.153809,240.855652 241.884369,239.808456 
	C230.004791,237.824158 220.746109,232.193390 213.469330,222.354187 
	C213.130997,221.603470 212.926514,221.214066 212.595718,220.519730 
	C212.527512,219.845245 212.440796,219.509842 211.990570,219.069519 
	C211.418015,218.761673 211.130432,218.530930 210.854950,217.972702 
	C210.648148,217.319550 210.466385,216.946533 210.229553,216.265671 
	C209.913315,215.323624 209.381882,214.886765 208.908173,214.019394 
	C207.932449,211.845551 207.908966,209.862473 207.931473,207.443771 
	C207.719666,205.723526 208.039856,204.595520 209.359344,203.434662 
	C223.032654,202.991974 236.296738,202.577362 249.553268,203.455917 
	C251.045547,203.554810 252.536713,203.650406 254.448196,203.096085 
	C257.697784,202.692978 260.477020,202.835297 263.610962,203.737671 
	C264.449615,204.016464 264.903046,204.029709 265.689575,204.113892 
	C288.425690,209.419022 307.858490,219.856216 323.062653,237.365387 
	C332.310333,248.014999 338.827301,260.175720 343.257324,273.683472 
	C347.874084,287.760651 348.517151,301.980255 347.214752,316.465179 
	C344.865753,342.589111 332.821594,363.682587 313.636932,381.123566 
	C301.298950,392.340118 286.852448,399.782257 270.840149,403.449524 
	C261.385040,405.615082 251.630966,407.392456 241.754593,407.378998 
	C221.434082,407.351288 201.113449,407.351562 180.792938,407.377716 
	C167.648300,407.394623 160.164383,414.880127 160.000031,428.118469 
	C159.956619,431.615814 160.090836,435.117218 159.961060,438.610962 
	C159.808014,442.731201 158.442383,443.473999 154.544937,441.985168 
	C150.742325,440.532532 148.232040,437.068726 144.054321,435.490112 
	C141.625259,434.004120 139.568832,432.683075 137.310730,431.082275 
	C118.206734,418.698242 99.492706,406.300323 80.559258,394.248535 
	C70.757820,388.009583 61.178799,381.421936 51.207523,375.449646 
	C49.617062,374.497070 47.535702,373.356628 48.072552,371.415771 
	C48.619370,369.438873 51.061359,369.709351 52.865044,369.596100 
	C54.693836,369.481293 56.529900,369.546295 58.362808,369.546265 
	C118.518150,369.545135 178.673508,369.526276 238.828796,369.579346 
	C244.031036,369.583954 249.133484,369.140930 254.596649,367.781494 
z"/>
<path fill="#F8E562" opacity="1.000000" stroke="none" 
	d="
M143.797470,435.637909 
	C146.026917,434.624268 147.912918,435.375275 149.507980,437.128235 
	C150.067444,437.743103 150.604980,438.467651 151.311523,438.842224 
	C153.451126,439.976440 155.741196,442.422882 157.854416,441.583069 
	C160.266937,440.624268 158.739975,437.421417 158.902618,435.225311 
	C159.135773,432.076935 159.318268,428.855133 158.918152,425.742340 
	C157.623428,415.669952 169.941193,405.696167 178.822525,405.854340 
	C200.138809,406.234009 221.469177,406.157440 242.788925,405.882141 
	C255.800415,405.714142 268.307709,403.080292 280.764679,398.768799 
	C290.755188,395.310974 299.720337,390.636139 307.822113,384.262085 
	C324.150116,371.415985 335.776215,355.382172 342.281372,335.252625 
	C345.563019,325.097809 346.525909,314.907776 346.783386,304.677643 
	C347.073181,293.163544 345.107330,281.769531 341.060059,270.692963 
	C335.409149,255.227676 326.863342,241.803558 314.869232,230.714905 
	C308.142181,224.495712 300.644104,219.202484 292.348694,214.968216 
	C285.727081,211.588318 278.938385,209.068512 271.792786,207.238663 
	C269.913757,206.757446 268.212402,205.582733 266.226074,204.455673 
	C270.914215,202.266769 275.065277,205.458023 279.176300,206.768753 
	C294.163391,211.547043 307.507324,219.596680 318.677673,230.706787 
	C328.732178,240.707092 337.086273,252.303970 341.959106,265.566650 
	C344.901825,273.576019 348.208191,281.768585 348.228180,290.903046 
	C348.240936,296.717316 350.473877,302.617279 349.728210,308.608887 
	C348.451019,318.871918 346.615448,328.952576 343.546326,338.953949 
	C338.991760,353.795837 330.268433,365.862000 320.050232,376.762177 
	C308.997620,388.552460 295.345764,396.727966 279.844543,402.172882 
	C264.012726,407.733978 247.751740,408.207001 231.414185,408.548645 
	C214.763214,408.896790 198.099197,408.583282 181.441284,408.653534 
	C174.568573,408.682526 168.109756,409.994781 164.231644,416.526306 
	C161.937881,420.389496 161.084061,424.790039 160.786652,429.201141 
	C160.507111,433.347137 160.726334,437.526276 160.711395,441.690796 
	C160.706024,443.188873 160.843246,444.808563 159.079407,445.513611 
	C157.672409,446.076050 156.508896,445.466736 155.450821,444.519135 
	C151.868088,441.310516 147.028427,439.791870 143.797470,435.637909 
z"/>
<path fill="#F7E357" opacity="1.000000" stroke="none" 
	d="
M254.669571,367.454285 
	C251.790817,370.991150 247.541946,370.854187 243.451523,370.856964 
	C180.477524,370.900177 117.503487,370.887451 54.529465,370.887695 
	C52.611610,370.887695 50.693752,370.887695 47.717331,370.887695 
	C51.293385,374.838837 55.206947,376.388062 58.485725,378.587860 
	C70.464363,386.624756 82.874947,394.014191 95.016670,401.812805 
	C105.088715,408.282135 114.987854,415.020081 125.011581,421.565521 
	C129.130936,424.255432 133.797485,426.162323 137.049820,430.471741 
	C133.131104,430.472595 130.182434,427.931030 127.026314,425.946960 
	C111.416794,416.134247 96.220741,405.689056 80.478340,396.062134 
	C67.977951,388.417816 56.214813,379.582642 43.529137,372.180298 
	C42.287724,371.455933 40.369896,370.010437 41.052258,368.362976 
	C41.772385,366.624237 44.020893,367.352844 45.613617,367.352112 
	C110.193359,367.322205 174.773117,367.327148 239.352875,367.320892 
	C244.341934,367.320404 249.331009,367.270996 254.669571,367.454285 
z"/>
<path fill="#F7E45E" opacity="1.000000" stroke="none" 
	d="
M151.566650,278.015259 
	C157.761383,278.733124 161.036758,284.154694 166.059464,286.955475 
	C174.519150,291.672760 182.989120,295.752228 192.460678,298.482758 
	C212.157242,304.160980 232.142258,302.685333 252.098389,303.120514 
	C255.061569,303.185150 256.012970,302.238373 256.265625,299.169739 
	C256.740692,293.399780 254.307007,288.721436 251.214233,284.476440 
	C246.556046,278.082886 241.252914,272.801636 232.831650,270.555359 
	C223.389557,268.036743 213.781021,267.438171 204.338181,265.626831 
	C195.668915,263.963928 187.372574,260.101746 180.566422,254.194107 
	C172.188797,246.922501 163.972290,239.215454 160.264053,228.385742 
	C158.610474,223.556503 156.376266,218.922623 155.737183,213.548080 
	C155.222565,209.220352 153.889557,204.913910 154.115921,200.441071 
	C154.423340,194.367294 156.238464,188.662659 157.943451,182.844589 
	C159.783905,176.564255 162.053085,170.628937 165.921539,165.437454 
	C169.860474,160.151367 173.708572,154.637436 180.498322,151.920624 
	C178.584412,156.171310 174.561661,158.902985 171.476852,162.449539 
	C165.723328,169.064316 162.750702,176.856247 159.709579,184.833878 
	C156.175858,194.103729 156.936783,203.717819 158.143707,212.863113 
	C159.519547,223.288376 164.284149,232.892929 171.261322,241.291992 
	C179.066055,250.687286 188.938385,256.896118 199.917084,261.540710 
	C207.657471,264.815277 216.187286,263.856964 224.278351,265.257935 
	C239.291382,267.857422 252.537109,274.985474 257.926147,292.628967 
	C258.260559,293.723907 259.005554,294.689758 259.374176,295.778442 
	C261.601624,302.356598 259.791870,304.935089 252.949417,304.916626 
	C240.618713,304.883331 228.284073,304.589569 215.958450,304.812195 
	C198.715424,305.123566 183.340714,299.437531 168.356201,291.551788 
	C161.801163,288.102142 156.437317,283.579895 151.566650,278.015259 
z"/>
<path fill="#F6E24B" opacity="1.000000" stroke="none" 
	d="
M219.212234,138.341217 
	C220.790604,134.539993 224.360916,135.174240 227.506363,135.148819 
	C240.990097,135.039764 254.475220,135.102219 267.959839,135.102203 
	C315.405701,135.102097 362.851807,135.164429 410.296692,134.946762 
	C413.141632,134.933731 416.305359,137.554703 419.147339,134.124054 
	C419.661835,133.757202 420.050079,133.779022 420.721619,133.886612 
	C422.387146,135.054062 423.055206,136.371017 422.048309,138.356140 
	C397.106995,138.626434 372.492981,138.699417 347.878937,138.712860 
	C306.797211,138.735275 265.715515,138.721512 224.633789,138.713181 
	C222.974152,138.712845 221.314560,138.612473 219.212234,138.341217 
z"/>
<path fill="#F7E357" opacity="1.000000" stroke="none" 
	d="
M213.091171,222.165939 
	C217.576828,223.399185 219.095551,227.736710 222.302597,230.319611 
	C231.187714,237.475586 241.804016,239.286255 252.538345,239.872360 
	C265.651001,240.588303 276.363953,246.044235 286.830231,253.431870 
	C295.206451,259.344208 300.516693,267.473999 304.933838,275.986450 
	C310.082275,285.908203 312.769470,297.003998 311.770203,308.359650 
	C310.301361,325.051331 303.677826,339.682922 291.715912,351.500702 
	C283.920044,359.202637 274.239471,364.115021 263.931061,367.693024 
	C262.586670,368.159607 260.970123,367.842072 259.043213,367.750885 
	C260.857086,363.431427 265.598785,364.037842 269.090393,362.731323 
	C283.022186,357.518311 292.780518,348.104492 300.418854,335.641449 
	C306.025665,326.493134 308.578583,316.456421 308.958893,306.218750 
	C309.187622,300.061859 308.123596,293.542816 306.283295,287.172119 
	C302.422638,273.807587 294.578857,263.726166 284.235138,255.036743 
	C275.670929,247.842224 265.824646,244.025940 254.809143,242.570007 
	C246.991837,241.536774 238.904602,241.756485 231.468292,238.661438 
	C223.476624,235.335251 216.071503,231.178101 213.091171,222.165939 
z"/>
<path fill="#F7E357" opacity="1.000000" stroke="none" 
	d="
M255.063385,203.644623 
	C251.159927,206.400864 247.368790,203.764603 243.513947,203.825363 
	C232.306168,204.001984 221.093353,203.860413 209.411102,203.817734 
	C208.650574,203.400024 208.517090,202.963684 208.775909,202.191925 
	C221.671127,201.864075 234.353394,201.820282 247.498199,201.843277 
	C250.317581,202.458069 253.038040,201.036072 255.063385,203.644623 
z"/>
<path fill="#F7E45E" opacity="1.000000" stroke="none" 
	d="
M307.246552,81.650436 
	C306.998840,81.976875 306.552124,82.069412 306.326141,82.039330 
	C304.287628,75.571587 305.586395,69.018044 305.445587,62.520985 
	C305.414612,61.093105 306.474396,59.839970 308.090424,61.080723 
	C309.616211,62.252201 312.070709,62.042259 312.925323,64.623413 
	C313.140594,65.139442 313.264435,65.328560 313.184631,65.788818 
	C311.867798,65.921059 310.616730,66.055260 310.076111,64.298355 
	C307.148956,63.939613 308.149323,66.157684 308.034546,67.551117 
	C307.657318,72.131065 308.579834,76.765663 307.246552,81.650436 
z"/>
<path fill="#FBF1A7" opacity="1.000000" stroke="none" 
	d="
M411.315460,129.228912 
	C410.990540,129.012131 410.596954,128.886597 410.398163,128.830444 
	C409.462006,128.497040 408.971039,127.897934 408.211121,127.188354 
	C407.642944,126.874664 407.266846,126.771927 406.608063,126.594208 
	C404.173798,125.448807 402.248230,124.054436 400.263672,122.191353 
	C399.668823,121.851166 399.287445,121.758247 398.620056,121.595840 
	C396.479553,120.473671 394.438812,119.635429 393.789764,117.106583 
	C397.429504,115.902184 399.036285,119.027878 401.359711,120.394386 
	C405.373962,122.755341 409.839813,124.550285 412.992920,128.614883 
	C412.658691,129.374252 412.193573,129.536346 411.315460,129.228912 
z"/>
<path fill="#F7E45E" opacity="1.000000" stroke="none" 
	d="
M328.236481,76.233185 
	C326.657562,75.470406 325.707367,74.491692 324.828308,73.054123 
	C325.662750,72.182060 326.692657,72.205444 327.528229,72.794136 
	C332.587250,76.358337 337.601440,79.986153 342.555817,83.929459 
	C337.860840,83.445808 334.988953,79.378754 330.351837,77.839256 
	C329.476135,77.336754 328.956451,76.923004 328.236481,76.233185 
z"/>
<path fill="#F7E45E" opacity="1.000000" stroke="none" 
	d="
M119.926239,187.680878 
	C120.009232,189.602737 120.052574,191.242676 118.551376,192.787781 
	C116.746201,187.796539 117.370796,182.868866 120.316521,178.048431 
	C122.553123,180.293167 120.303871,182.782898 120.774109,185.598724 
	C120.402435,186.447983 120.103783,186.890091 119.926239,187.680878 
z"/>
<path fill="#F7E45E" opacity="1.000000" stroke="none" 
	d="
M213.170609,100.794281 
	C208.349548,100.241249 204.214828,104.372177 199.198624,102.123367 
	C199.881500,98.694862 202.504272,99.454071 204.698837,99.368271 
	C207.164963,99.271858 209.637054,99.327888 212.550812,99.438713 
	C213.285812,99.836037 213.393646,100.175560 213.170609,100.794281 
z"/>
<path fill="#F7E45E" opacity="1.000000" stroke="none" 
	d="
M123.043610,230.725830 
	C123.342087,232.118759 123.584335,233.194397 123.931931,234.586670 
	C124.450653,235.412582 124.883438,235.906570 125.441818,236.718430 
	C125.970268,238.829987 126.313736,240.670578 126.829468,242.735901 
	C127.327019,243.249908 127.501053,243.614883 127.228188,244.561829 
	C124.432922,243.629333 123.998291,240.895416 123.077133,238.575119 
	C121.950478,235.737198 121.316071,232.703873 120.596100,229.408218 
	C122.224213,228.256454 122.550613,229.425232 123.043610,230.725830 
z"/>
<path fill="#F7E45E" opacity="1.000000" stroke="none" 
	d="
M118.005463,211.294159 
	C119.921326,212.039246 119.970757,213.668945 119.951828,215.675903 
	C120.005966,217.151749 119.967453,218.273895 120.084366,219.726028 
	C120.632759,221.812317 121.143867,223.564667 121.607079,225.653793 
	C121.329552,226.100662 121.099922,226.210724 120.537628,226.133057 
	C116.934891,221.573181 117.360939,216.561798 118.005463,211.294159 
z"/>
<path fill="#F8E562" opacity="1.000000" stroke="none" 
	d="
M255.481079,204.085602 
	C253.229919,201.917694 250.466675,203.810425 248.211700,202.206726 
	C253.410080,200.480942 258.646973,201.512268 263.908264,203.641327 
	C261.306519,204.038269 258.616821,204.073288 255.481079,204.085602 
z"/>
<path fill="#F7E45E" opacity="1.000000" stroke="none" 
	d="
M194.310974,104.479446 
	C191.120056,105.206299 188.228226,105.760788 184.965073,106.313034 
	C187.986984,103.232727 191.910461,101.520653 196.789551,101.942192 
	C197.023529,102.216606 197.100861,102.610039 197.055023,102.805214 
	C196.376541,103.742653 195.452682,103.950272 194.310974,104.479446 
z"/>
<path fill="#FBF1A7" opacity="1.000000" stroke="none" 
	d="
M199.638229,140.891235 
	C200.830338,140.696732 201.678375,140.561447 202.799713,140.254913 
	C205.345093,138.717834 207.676239,137.621445 210.748230,138.773758 
	C207.189316,142.501007 202.072891,142.306137 197.119720,143.592712 
	C196.380493,141.386093 197.889984,141.222305 199.638229,140.891235 
z"/>
<path fill="#F7E45E" opacity="1.000000" stroke="none" 
	d="
M180.811905,106.863640 
	C181.008148,107.120354 181.067078,107.563766 181.018188,107.782013 
	C180.525253,108.466438 180.053040,108.900993 179.269806,109.466599 
	C175.738159,109.889740 173.280701,112.162186 169.985107,113.210266 
	C172.358200,109.493408 176.285477,107.720329 180.811905,106.863640 
z"/>
<path fill="#F7E45E" opacity="1.000000" stroke="none" 
	d="
M183.092529,150.470200 
	C183.119995,148.780289 184.426758,148.170883 185.838440,147.234406 
	C186.501099,146.522324 186.983704,146.064758 187.781494,145.460449 
	C189.625320,144.790665 191.201080,144.318436 193.113403,143.784363 
	C191.638214,148.240555 186.798111,148.354218 183.092529,150.470200 
z"/>
<path fill="#F7E45E" opacity="1.000000" stroke="none" 
	d="
M299.728455,94.133362 
	C297.852478,98.133522 294.107941,99.090225 289.561584,99.171722 
	C291.845428,95.990257 296.189209,96.236137 299.728455,94.133362 
z"/>
<path fill="#F7E45E" opacity="1.000000" stroke="none" 
	d="
M130.970062,253.139526 
	C134.230164,253.653427 132.735474,257.705078 135.730453,258.770752 
	C136.441055,259.421814 136.827545,259.901276 137.125229,260.797363 
	C137.261200,261.359009 137.302780,261.623535 137.334778,262.086761 
	C132.617523,261.133575 132.240143,256.778687 130.970062,253.139526 
z"/>
<path fill="#F7E45E" opacity="1.000000" stroke="none" 
	d="
M131.208740,152.705841 
	C130.313644,154.867935 129.567123,156.602692 128.685211,158.670380 
	C128.050888,159.763870 127.443192,160.358475 126.171295,160.213959 
	C125.916313,156.572632 128.630920,154.530838 130.543976,151.722015 
	C131.008621,151.786285 131.182968,152.032410 131.208740,152.705841 
z"/>
<path fill="#F7E45E" opacity="1.000000" stroke="none" 
	d="
M144.523254,271.053680 
	C144.976257,270.716125 145.275833,270.783386 145.782349,270.981506 
	C146.484589,271.516327 146.950912,271.988342 147.599091,272.745331 
	C148.910934,274.267242 150.006241,275.537598 151.185577,277.097046 
	C147.758575,276.792938 144.859375,275.494873 144.523254,271.053680 
z"/>
<path fill="#FBF1A7" opacity="1.000000" stroke="none" 
	d="
M422.085754,138.707245 
	C422.427643,137.114532 421.384491,135.954651 421.021545,134.322693 
	C423.523865,133.289932 424.936737,135.234421 425.418457,136.830490 
	C425.956573,138.613434 424.011719,138.938232 422.085754,138.707245 
z"/>
<path fill="#F7E45E" opacity="1.000000" stroke="none" 
	d="
M359.204224,94.870987 
	C356.260986,94.048904 353.475098,93.238586 351.818787,90.270065 
	C355.000580,89.243668 356.514648,91.847527 358.707642,93.838226 
	C359.128845,94.268936 359.328308,94.449432 359.204224,94.870987 
z"/>
<path fill="#F6E24B" opacity="1.000000" stroke="none" 
	d="
M369.164886,101.743370 
	C365.680389,101.840401 363.235687,100.039673 361.058716,97.330902 
	C362.349976,95.947525 363.343445,96.789047 364.574097,97.866837 
	C365.560394,98.536743 366.320862,98.906967 367.386688,99.381531 
	C368.708557,99.742790 369.198761,100.439751 369.164886,101.743370 
z"/>
<path fill="#F7E45E" opacity="1.000000" stroke="none" 
	d="
M305.434448,85.868050 
	C306.423218,89.446808 303.364136,90.929405 301.095886,93.162560 
	C300.687927,89.920006 303.528168,88.328133 305.434448,85.868050 
z"/>
<path fill="#F6E24B" opacity="1.000000" stroke="none" 
	d="
M380.406158,109.192146 
	C377.182098,109.520103 375.105499,107.978363 373.820923,104.848511 
	C375.775970,103.643188 376.408478,106.175583 378.369080,106.356003 
	C379.958710,106.781326 380.429108,107.683266 380.406158,109.192146 
z"/>
<path fill="#F6E24B" opacity="1.000000" stroke="none" 
	d="
M211.360870,138.960815 
	C208.536270,138.458679 206.239487,139.522202 203.471909,140.071442 
	C205.354523,136.905716 208.380798,136.589493 211.966827,138.108658 
	C211.970657,138.552475 211.814850,138.698349 211.360870,138.960815 
z"/>
<path fill="#F7E45E" opacity="1.000000" stroke="none" 
	d="
M117.667709,199.119904 
	C118.079933,201.385529 118.138939,203.745575 118.109459,206.540146 
	C114.991524,204.642242 116.158661,201.927765 117.667709,199.119904 
z"/>
<path fill="#F6E24B" opacity="1.000000" stroke="none" 
	d="
M391.499084,116.063965 
	C388.400970,116.829575 386.521362,115.062622 385.135315,112.135300 
	C387.532623,112.628571 389.944122,113.435486 391.499084,116.063965 
z"/>
<path fill="#FBF1A7" opacity="1.000000" stroke="none" 
	d="
M380.633087,109.628769 
	C379.838196,108.670128 379.370056,107.835594 378.801819,106.734451 
	C381.610229,106.496841 383.572876,107.989525 384.874329,110.832428 
	C383.554840,110.713387 382.257324,110.233139 380.633087,109.628769 
z"/>
<path fill="#F8E562" opacity="1.000000" stroke="none" 
	d="
M208.611038,201.910278 
	C208.984116,202.328690 208.979370,202.749481 208.957153,203.481049 
	C208.802856,204.732651 208.666016,205.673492 208.235565,206.813995 
	C205.230209,205.152954 204.769196,203.420776 208.611038,201.910278 
z"/>
<path fill="#FBF1A7" opacity="1.000000" stroke="none" 
	d="
M369.336914,102.108360 
	C368.630646,101.370461 368.257599,100.694313 367.788330,99.752014 
	C370.661591,99.385681 372.542847,101.001976 373.888092,103.787125 
	C371.994263,104.491516 371.244080,102.456200 369.336914,102.108360 
z"/>
<path fill="#F6E24B" opacity="1.000000" stroke="none" 
	d="
M199.742828,140.603607 
	C198.997925,141.531723 198.013565,142.231430 196.877686,143.192230 
	C196.275574,143.477753 195.824936,143.502167 195.079773,143.350021 
	C195.355331,140.550186 196.883087,139.541626 199.742828,140.603607 
z"/>
<path fill="#FBF1A7" opacity="1.000000" stroke="none" 
	d="
M364.819885,97.810516 
	C363.764679,97.776382 362.729370,97.386246 361.358582,96.984741 
	C360.474854,96.448418 359.926636,95.923447 359.129547,95.255264 
	C358.897064,94.941666 358.913452,94.771294 358.929626,94.344688 
	C361.680725,93.838814 363.484406,95.253136 364.819885,97.810516 
z"/>
<path fill="#F7E45E" opacity="1.000000" stroke="none" 
	d="
M323.550049,71.916153 
	C321.850769,71.437340 319.733612,71.446259 318.710022,69.205505 
	C321.216217,68.101562 322.716766,69.278496 323.550049,71.916153 
z"/>
<path fill="#F7E45E" opacity="1.000000" stroke="none" 
	d="
M130.488159,248.729950 
	C130.735153,249.533585 130.787735,250.074005 130.709930,251.004471 
	C127.569061,250.709732 127.248024,248.302338 126.965523,245.457184 
	C126.911835,245.078476 126.987381,245.016571 127.026276,244.987030 
	C128.450012,244.598984 128.365341,245.697617 128.800537,246.744598 
	C129.013962,246.996841 128.998459,246.999237 129.003128,246.992249 
	C129.461731,247.457138 129.902527,247.940414 130.488159,248.729950 
z"/>
<path fill="#F6E24B" opacity="1.000000" stroke="none" 
	d="
M411.037445,129.368011 
	C411.444885,129.007355 411.899231,129.002579 412.694672,128.978638 
	C413.182770,129.248322 413.383942,129.492554 413.842163,129.818115 
	C415.182434,130.930328 417.415009,130.625885 417.394165,133.203369 
	C414.686340,133.150452 412.518555,132.034454 411.037445,129.368011 
z"/>
<path fill="#F7E45C" opacity="1.000000" stroke="none" 
	d="
M120.168549,226.345398 
	C120.508263,225.975983 120.812332,225.990952 121.338181,225.990417 
	C122.465721,227.406967 124.455711,228.360657 123.306641,230.804855 
	C122.467751,230.430450 121.835655,229.817780 120.963470,229.133270 
	C120.526299,228.289413 120.329216,227.517410 120.168549,226.345398 
z"/>
<path fill="#F7E45C" opacity="1.000000" stroke="none" 
	d="
M213.238846,101.262535 
	C212.997742,100.692764 212.999344,100.366348 212.998276,99.799881 
	C214.105347,98.952271 215.269257,98.980400 216.720123,99.494080 
	C216.738739,102.124214 215.238144,102.066757 213.238846,101.262535 
z"/>
<path fill="#F6E24B" opacity="1.000000" stroke="none" 
	d="
M393.739532,116.792503 
	C394.464996,119.063225 397.415741,118.873207 398.216858,121.232910 
	C395.519135,121.666557 393.713135,120.412338 393.015381,117.291389 
	C393.040253,116.922226 393.499847,116.785294 393.739532,116.792503 
z"/>
<path fill="#FBF1A7" opacity="1.000000" stroke="none" 
	d="
M417.633881,133.616196 
	C416.924988,131.922943 415.468475,131.372879 414.181641,130.232239 
	C416.214142,129.978394 418.417969,129.948517 419.194763,133.015411 
	C418.833527,133.457748 418.400787,133.574661 417.633881,133.616196 
z"/>
<path fill="#F7E45E" opacity="1.000000" stroke="none" 
	d="
M141.219833,138.572571 
	C140.099503,139.638641 139.203262,140.383148 138.038788,141.206024 
	C136.891541,138.823334 139.100754,138.209198 140.660858,136.914490 
	C141.374680,137.224991 141.524780,137.701630 141.219833,138.572571 
z"/>
<path fill="#F7E45E" opacity="1.000000" stroke="none" 
	d="
M125.361397,162.842163 
	C126.037277,164.386765 126.678375,166.175507 124.055878,167.219849 
	C122.762642,165.416138 124.297974,164.337173 125.361397,162.842163 
z"/>
<path fill="#F7E45E" opacity="1.000000" stroke="none" 
	d="
M158.742279,120.240990 
	C158.438828,122.019302 156.611313,122.204887 155.091263,123.233734 
	C154.270584,120.298805 156.854950,120.837929 158.742279,120.240990 
z"/>
<path fill="#F7E45E" opacity="1.000000" stroke="none" 
	d="
M163.845825,116.283997 
	C163.661179,118.034927 162.208496,118.527199 160.481079,119.089752 
	C160.219315,116.921669 161.610611,116.267830 163.845825,116.283997 
z"/>
<path fill="#F7E45E" opacity="1.000000" stroke="none" 
	d="
M134.704346,145.044083 
	C135.237259,146.197571 135.267883,147.309464 133.646027,147.984482 
	C131.456268,146.213150 133.431839,145.828354 134.704346,145.044083 
z"/>
<path fill="#F7E45E" opacity="1.000000" stroke="none" 
	d="
M167.945160,113.858505 
	C167.162399,114.777275 166.088699,115.489319 164.729218,116.228752 
	C164.300400,113.892204 165.911606,113.690987 167.945160,113.858505 
z"/>
<path fill="#F7E45E" opacity="1.000000" stroke="none" 
	d="
M346.844177,86.771194 
	C345.430634,87.249557 344.640533,86.373817 343.840149,85.073059 
	C345.529510,83.885201 346.240601,85.055351 346.844177,86.771194 
z"/>
<path fill="#F7E45E" opacity="1.000000" stroke="none" 
	d="
M137.588409,263.016388 
	C139.020157,263.039185 139.827408,263.854248 140.161179,265.447510 
	C138.541702,265.744629 137.617737,264.957275 137.588409,263.016388 
z"/>
<path fill="#F7E45C" opacity="1.000000" stroke="none" 
	d="
M125.796303,160.342041 
	C126.592430,159.732941 127.298874,159.412796 128.277573,159.047974 
	C128.964935,160.768005 127.975250,161.505203 126.111389,161.842087 
	C125.743263,161.427200 125.724945,161.029114 125.796303,160.342041 
z"/>
<path fill="#F7E45E" opacity="1.000000" stroke="none" 
	d="
M122.560226,171.903763 
	C123.288727,173.068527 122.782516,173.975128 121.573021,174.859207 
	C119.367126,173.236130 121.398384,172.791718 122.560226,171.903763 
z"/>
<path fill="#F7E45E" opacity="1.000000" stroke="none" 
	d="
M144.813843,132.235031 
	C145.202393,133.639816 144.342972,134.425430 143.016754,135.175842 
	C141.878510,133.438248 143.153778,132.814697 144.813843,132.235031 
z"/>
<path fill="#F7E45C" opacity="1.000000" stroke="none" 
	d="
M313.089630,66.401611 
	C312.987366,65.875092 312.993744,65.690224 313.008484,65.227829 
	C314.200684,64.978645 315.013214,65.533600 315.513397,66.945442 
	C314.634247,67.865997 313.800446,67.864471 313.089630,66.401611 
z"/>
<path fill="#F7E45C" opacity="1.000000" stroke="none" 
	d="
M349.079407,88.174133 
	C347.631927,90.774918 347.370728,88.997398 346.910675,87.488739 
	C347.781342,86.871460 348.490967,87.125931 349.079407,88.174133 
z"/>
<path fill="#F8E562" opacity="1.000000" stroke="none" 
	d="
M208.631256,213.998810 
	C209.797562,214.005585 211.117538,214.001526 210.399231,215.809418 
	C209.068771,215.958984 208.347580,215.557602 208.631256,213.998810 
z"/>
<path fill="#F7E45E" opacity="1.000000" stroke="none" 
	d="
M142.760010,269.167023 
	C143.363007,269.279114 143.759506,269.560242 144.223358,270.083008 
	C143.258728,270.791046 142.520035,270.742035 142.760010,269.167023 
z"/>
<path fill="#F7E45E" opacity="1.000000" stroke="none" 
	d="
M153.983765,123.658485 
	C153.881989,124.247429 153.480042,124.698952 152.850601,125.201736 
	C152.164871,124.178658 152.534775,123.611389 153.983765,123.658485 
z"/>
<path fill="#F7E45E" opacity="1.000000" stroke="none" 
	d="
M150.932617,126.487595 
	C150.796051,127.127686 150.351196,127.640205 149.639740,128.181686 
	C149.187469,127.186256 149.464615,126.474777 150.932617,126.487595 
z"/>
<path fill="#F7E45C" opacity="1.000000" stroke="none" 
	d="
M141.297668,138.853424 
	C140.996613,138.434937 140.997482,137.975769 140.995972,137.168854 
	C140.993591,136.821106 141.263992,136.702454 141.393585,136.770065 
	C142.838913,137.446106 143.118042,138.094650 141.297668,138.853424 
z"/>
<path fill="#F7E357" opacity="1.000000" stroke="none" 
	d="
M211.775452,218.351608 
	C213.086258,218.262512 214.240936,218.476440 212.767639,220.089844 
	C212.469421,220.214798 212.212021,220.361801 212.089020,220.279144 
	C211.604523,219.755966 211.466919,219.254059 211.775452,218.351608 
z"/>
<path fill="#F8E562" opacity="1.000000" stroke="none" 
	d="
M211.805405,217.945663 
	C211.996216,218.496704 211.994720,218.980957 211.979614,219.830841 
	C210.970703,219.945190 210.312302,219.427383 210.639893,217.986237 
	C211.100784,217.713379 211.361847,217.775482 211.805405,217.945663 
z"/>
<path fill="#F7E45C" opacity="1.000000" stroke="none" 
	d="
M131.394806,152.994873 
	C131.026184,152.868179 130.992188,152.603180 130.896240,151.939178 
	C131.172882,151.215286 131.511475,150.890381 132.077332,150.499985 
	C132.908127,151.430710 132.825928,152.264099 131.394806,152.994873 
z"/>
<path fill="#F7E45C" opacity="1.000000" stroke="none" 
	d="
M307.378662,81.868454 
	C306.999115,76.737442 306.963470,71.497612 307.021973,66.258835 
	C307.039124,64.725571 306.637543,62.589989 309.745972,63.698784 
	C307.709961,66.686012 309.363037,69.916412 308.848419,72.865997 
	C308.334229,75.812759 310.008759,79.027245 307.378662,81.868454 
z"/>
<path fill="#F6E24B" opacity="1.000000" stroke="none" 
	d="
M400.081177,122.294678 
	C402.437897,122.697647 404.529724,123.894958 406.188751,126.232758 
	C403.306641,126.747856 401.502167,125.028992 400.081177,122.294678 
z"/>
<path fill="#F7E45C" opacity="1.000000" stroke="none" 
	d="
M120.344521,219.816223 
	C118.710510,219.090820 118.815041,217.829575 119.682068,216.251648 
	C121.281044,217.009888 121.048904,218.268875 120.344521,219.816223 
z"/>
<path fill="#F7E45C" opacity="1.000000" stroke="none" 
	d="
M194.345795,104.730011 
	C194.198013,103.269653 195.153305,102.974762 196.674103,103.002991 
	C196.819885,104.359627 196.039825,104.957642 194.345795,104.730011 
z"/>
<path fill="#F7E45C" opacity="1.000000" stroke="none" 
	d="
M129.003174,246.627258 
	C128.517044,246.432327 128.020126,245.867828 127.294189,245.130402 
	C127.045273,244.514236 127.025368,244.070969 127.003601,243.294174 
	C129.019211,243.242203 128.871338,244.831131 129.003174,246.627258 
z"/>
<path fill="#F7E45C" opacity="1.000000" stroke="none" 
	d="
M328.060120,76.304123 
	C328.831604,76.064514 329.588135,76.249840 329.940796,77.461899 
	C329.073792,77.856140 328.408783,77.540833 328.060120,76.304123 
z"/>
<path fill="#F7E45C" opacity="1.000000" stroke="none" 
	d="
M120.139206,187.800842 
	C118.958244,187.151291 119.099426,186.538895 120.446762,186.046371 
	C120.598717,186.555893 120.498367,187.106949 120.139206,187.800842 
z"/>
<path fill="#F7E45C" opacity="1.000000" stroke="none" 
	d="
M147.811005,272.690918 
	C146.963806,272.906006 146.283585,272.591675 146.038727,271.361206 
	C146.855057,271.158173 147.583191,271.427185 147.811005,272.690918 
z"/>
<path fill="#F7E45C" opacity="1.000000" stroke="none" 
	d="
M179.309021,109.696640 
	C179.127563,108.828590 179.504349,108.227303 180.677704,108.032089 
	C180.841522,108.834412 180.609665,109.587250 179.309021,109.696640 
z"/>
<path fill="#F7E45C" opacity="1.000000" stroke="none" 
	d="
M137.372787,260.878479 
	C136.824005,260.607147 136.440140,260.117950 136.028305,259.304169 
	C136.894638,259.190704 137.902863,259.297668 137.372787,260.878479 
z"/>
<path fill="#F7E45C" opacity="1.000000" stroke="none" 
	d="
M130.718567,248.689621 
	C129.837051,248.875092 129.222641,248.491623 129.036118,247.284729 
	C129.832306,247.150131 130.596313,247.390442 130.718567,248.689621 
z"/>
<path fill="#F7E45C" opacity="1.000000" stroke="none" 
	d="
M125.680786,236.688660 
	C124.768875,236.854858 124.187164,236.428009 124.051453,235.208725 
	C124.825958,235.143356 125.616272,235.381561 125.680786,236.688660 
z"/>
<path fill="#F6E24B" opacity="1.000000" stroke="none" 
	d="
M408.059021,127.312469 
	C408.927460,126.975143 409.650330,127.281799 410.109070,128.476379 
	C409.202789,128.951309 408.411133,128.746277 408.059021,127.312469 
z"/>
<path fill="#F6E24B" opacity="1.000000" stroke="none" 
	d="
M187.734711,145.232208 
	C187.901871,146.090317 187.544708,146.741943 186.347229,146.975891 
	C186.138168,146.131439 186.352127,145.343933 187.734711,145.232208 
z"/>
</svg>